HIERARCHY
ROOT hips_JNT
{
	OFFSET 0.000000 0.000000 0.000000
	CHANNELS 6 Xposition Yposition Zposition Zrotation Xrotation Yrotation
	JOINT spine_JNT
	{
		OFFSET -0.000424 -2.543419 9.319810
		CHANNELS 6 Xposition Yposition Zposition Zrotation Xrotation Yrotation
		JOINT spine1_JNT
		{
			OFFSET 0.000000 0.000046 10.873099
			CHANNELS 6 Xposition Yposition Zposition Zrotation Xrotation Yrotation
			JOINT spine2_JNT
			{
				OFFSET 0.000000 5.951161 12.426399
				CHANNELS 6 Xposition Yposition Zposition Zrotation Xrotation Yrotation
				JOINT neck_JNT
				{
					OFFSET 0.000000 1.460481 13.979698
					CHANNELS 6 Xposition Yposition Zposition Zrotation Xrotation Yrotation
					JOINT head_JNT
					{
						OFFSET 0.000000 -2.091499 5.870201
						CHANNELS 6 Xposition Yposition Zposition Zrotation Xrotation Yrotation
						End Site
						{
							OFFSET 0.000000 0.000000 0.099998
						}
					}
				}
				JOINT l_shoulder_JNT
				{
					OFFSET 4.399140 1.485011 12.861000
					CHANNELS 6 Xposition Yposition Zposition Zrotation Xrotation Yrotation
					JOINT l_arm_JNT
					{
						OFFSET 8.757349 0.049052 -2.311981
						CHANNELS 6 Xposition Yposition Zposition Zrotation Xrotation Yrotation
						JOINT l_forearm_JNT
						{
							OFFSET 26.900103 -0.000013 -0.000046
							CHANNELS 6 Xposition Yposition Zposition Zrotation Xrotation Yrotation
							JOINT l_hand_JNT
							{
								OFFSET 23.014801 0.000004 -0.000046
								CHANNELS 6 Xposition Yposition Zposition Zrotation Xrotation Yrotation
								JOINT l_handThumb1_JNT
								{
									OFFSET 3.629997 -2.130000 -0.779999
									CHANNELS 6 Xposition Yposition Zposition Zrotation Xrotation Yrotation
									JOINT l_handThumb2_JNT
									{
										OFFSET 3.551140 -2.240060 -2.118370
										CHANNELS 6 Xposition Yposition Zposition Zrotation Xrotation Yrotation
										JOINT l_handThumb3_JNT
										{
											OFFSET 2.159111 -0.963467 -1.116310
											CHANNELS 6 Xposition Yposition Zposition Zrotation Xrotation Yrotation
											End Site
											{
												OFFSET 0.000000 0.000000 0.099998
											}
										}
									}
								}
								JOINT l_handIndex1_JNT
								{
									OFFSET 10.514900 -2.197570 -0.041019
									CHANNELS 6 Xposition Yposition Zposition Zrotation Xrotation Yrotation
									JOINT l_handIndex2_JNT
									{
										OFFSET 2.751831 0.139054 -0.102867
										CHANNELS 6 Xposition Yposition Zposition Zrotation Xrotation Yrotation
										JOINT l_handIndex3_JNT
										{
											OFFSET 2.353012 0.090487 -0.073399
											CHANNELS 6 Xposition Yposition Zposition Zrotation Xrotation Yrotation
											End Site
											{
												OFFSET 0.000000 0.000000 0.099998
											}
										}
									}
								}
								JOINT l_handMiddle1_JNT
								{
									OFFSET 10.067101 -0.059573 0.139202
									CHANNELS 6 Xposition Yposition Zposition Zrotation Xrotation Yrotation
									JOINT l_handMiddle2_JNT
									{
										OFFSET 3.909027 0.119066 -0.288403
										CHANNELS 6 Xposition Yposition Zposition Zrotation Xrotation Yrotation
										JOINT l_handMiddle3_JNT
										{
											OFFSET 2.328400 0.059440 -0.019108
											CHANNELS 6 Xposition Yposition Zposition Zrotation Xrotation Yrotation
											End Site
											{
												OFFSET 0.000000 0.000000 0.099998
											}
										}
									}
								}
								JOINT l_handRing1_JNT
								{
									OFFSET 9.468109 1.809830 0.132240
									CHANNELS 6 Xposition Yposition Zposition Zrotation Xrotation Yrotation
									JOINT l_handRing2_JNT
									{
										OFFSET 3.281532 0.033937 -0.224052
										CHANNELS 6 Xposition Yposition Zposition Zrotation Xrotation Yrotation
										JOINT l_handRing3_JNT
										{
											OFFSET 2.245003 0.008389 -0.070213
											CHANNELS 6 Xposition Yposition Zposition Zrotation Xrotation Yrotation
											End Site
											{
												OFFSET 0.000000 0.000000 0.099998
											}
										}
									}
								}
								JOINT l_handPinky1_JNT
								{
									OFFSET 8.490768 3.584150 -0.077770
									CHANNELS 6 Xposition Yposition Zposition Zrotation Xrotation Yrotation
									JOINT l_handPinky2_JNT
									{
										OFFSET 2.532173 0.017040 -0.073074
										CHANNELS 6 Xposition Yposition Zposition Zrotation Xrotation Yrotation
										JOINT l_handPinky3_JNT
										{
											OFFSET 1.951210 -0.017009 0.025116
											CHANNELS 6 Xposition Yposition Zposition Zrotation Xrotation Yrotation
											End Site
											{
												OFFSET 0.000000 0.000000 0.099998
											}
										}
									}
								}
							}
						}
					}
				}
				JOINT r_shoulder_JNT
				{
					OFFSET -4.397820 1.485011 12.860600
					CHANNELS 6 Xposition Yposition Zposition Zrotation Xrotation Yrotation
					JOINT r_arm_JNT
					{
						OFFSET -8.757320 0.049050 -2.312000
						CHANNELS 6 Xposition Yposition Zposition Zrotation Xrotation Yrotation
						JOINT r_forearm_JNT
						{
							OFFSET -26.900000 -0.000010 0.000000
							CHANNELS 6 Xposition Yposition Zposition Zrotation Xrotation Yrotation
							JOINT r_hand_JNT
							{
								OFFSET -23.014900 0.000000 0.000000
								CHANNELS 6 Xposition Yposition Zposition Zrotation Xrotation Yrotation
								JOINT r_handThumb1_JNT
								{
									OFFSET -3.629997 -2.130000 -0.779999
									CHANNELS 6 Xposition Yposition Zposition Zrotation Xrotation Yrotation
									JOINT r_handThumb2_JNT
									{
										OFFSET -3.551201 -2.240060 -2.118000
										CHANNELS 6 Xposition Yposition Zposition Zrotation Xrotation Yrotation
										JOINT r_handThumb3_JNT
										{
											OFFSET -2.159103 -0.963467 -1.116001
											CHANNELS 6 Xposition Yposition Zposition Zrotation Xrotation Yrotation
											End Site
											{
												OFFSET 0.000000 0.000000 0.099998
											}
										}
									}
								}
								JOINT r_handIndex1_JNT
								{
									OFFSET -10.514900 -2.197560 -0.040997
									CHANNELS 6 Xposition Yposition Zposition Zrotation Xrotation Yrotation
									JOINT r_handIndex2_JNT
									{
										OFFSET -2.751801 0.139050 -0.102997
										CHANNELS 6 Xposition Yposition Zposition Zrotation Xrotation Yrotation
										JOINT r_handIndex3_JNT
										{
											OFFSET -2.352997 0.090490 -0.073006
											CHANNELS 6 Xposition Yposition Zposition Zrotation Xrotation Yrotation
											End Site
											{
												OFFSET 0.000000 0.000000 0.099998
											}
										}
									}
								}
								JOINT r_handMiddle1_JNT
								{
									OFFSET -10.067101 -0.059570 0.139999
									CHANNELS 6 Xposition Yposition Zposition Zrotation Xrotation Yrotation
									JOINT r_handMiddle2_JNT
									{
										OFFSET -3.909103 0.119070 -0.288998
										CHANNELS 6 Xposition Yposition Zposition Zrotation Xrotation Yrotation
										JOINT r_handMiddle3_JNT
										{
											OFFSET -2.328400 0.059440 -0.019001
											CHANNELS 6 Xposition Yposition Zposition Zrotation Xrotation Yrotation
											End Site
											{
												OFFSET 0.000000 0.000000 0.099998
											}
										}
									}
								}
								JOINT r_handRing1_JNT
								{
									OFFSET -9.468102 1.809830 0.133003
									CHANNELS 6 Xposition Yposition Zposition Zrotation Xrotation Yrotation
									JOINT r_handRing2_JNT
									{
										OFFSET -3.281601 0.033939 -0.224995
										CHANNELS 6 Xposition Yposition Zposition Zrotation Xrotation Yrotation
										JOINT r_handRing3_JNT
										{
											OFFSET -2.245003 0.008390 -0.070000
											CHANNELS 6 Xposition Yposition Zposition Zrotation Xrotation Yrotation
											End Site
											{
												OFFSET 0.000000 0.000000 0.099998
											}
										}
									}
								}
								JOINT r_handPinky1_JNT
								{
									OFFSET -8.490799 3.584149 -0.076996
									CHANNELS 6 Xposition Yposition Zposition Zrotation Xrotation Yrotation
									JOINT r_handPinky2_JNT
									{
										OFFSET -2.532204 0.017040 -0.074005
										CHANNELS 6 Xposition Yposition Zposition Zrotation Xrotation Yrotation
										JOINT r_handPinky3_JNT
										{
											OFFSET -1.951202 -0.017010 0.026001
											CHANNELS 6 Xposition Yposition Zposition Zrotation Xrotation Yrotation
											End Site
											{
												OFFSET 0.000000 0.000000 0.099998
											}
										}
									}
								}
							}
						}
					}
				}
			}
		}
	}
	JOINT l_upleg_JNT
	{
		OFFSET 10.061400 0.706233 -5.185750
		CHANNELS 6 Xposition Yposition Zposition Zrotation Xrotation Yrotation
		JOINT l_leg_JNT
		{
			OFFSET -0.348572 0.819165 -45.582401
			CHANNELS 6 Xposition Yposition Zposition Zrotation Xrotation Yrotation
			JOINT l_foot_JNT
			{
				OFFSET 0.349145 1.708487 -42.332497
				CHANNELS 6 Xposition Yposition Zposition Zrotation Xrotation Yrotation
				JOINT l_toebase_JNT
				{
					OFFSET 0.070271 -12.888700 -8.126663
					CHANNELS 6 Xposition Yposition Zposition Zrotation Xrotation Yrotation
					End Site
					{
						OFFSET 0.000000 0.000000 0.099998
					}
				}
			}
		}
	}
	JOINT r_upleg_JNT
	{
		OFFSET -10.061000 0.706233 -5.185770
		CHANNELS 6 Xposition Yposition Zposition Zrotation Xrotation Yrotation
		JOINT r_leg_JNT
		{
			OFFSET 0.348580 0.819162 -45.582405
			CHANNELS 6 Xposition Yposition Zposition Zrotation Xrotation Yrotation
			JOINT r_foot_JNT
			{
				OFFSET -0.349180 1.708487 -42.332504
				CHANNELS 6 Xposition Yposition Zposition Zrotation Xrotation Yrotation
				JOINT r_toebase_JNT
				{
					OFFSET -0.070200 -12.888700 -8.126663
					CHANNELS 6 Xposition Yposition Zposition Zrotation Xrotation Yrotation
					End Site
					{
						OFFSET 0.000000 0.000000 0.099998
					}
				}
			}
		}
	}
}
MOTION
Frames: 4
Frame Time: 0.041667
0.182174 0.090679 100.057037 8.610991 7.501696 1.547984 -0.000424 -2.543428 9.319808 0.000114 0.002108 -3.045812 0.000000 0.000047 10.873103 -0.000000 0.000005 0.000000 -0.000000 5.951160 12.426386 -3.775528 0.018989 -0.778670 0.000000 1.460481 13.979692 -4.661747 -3.719585 -6.100548 0.000001 -2.091509 5.870211 -0.173942 5.762149 2.515812 4.399139 1.485011 12.861008 -0.000001 -0.000000 -0.000003 8.757345 0.049051 -2.311986 -12.447001 -5.136854 62.524132 26.900116 -0.000010 -0.000054 -114.453009 -14.028315 9.057980 23.014803 0.000001 -0.000044 0.000001 -0.000007 0.000001 3.629982 -2.129992 -0.780005 -22.207704 20.704834 4.106618 3.551137 -2.240054 -2.118389 0.000008 0.000003 0.000006 2.159112 -0.963465 -1.116315 1.465498 0.190488 14.810512 10.514895 -2.197570 -0.041023 -1.409100 6.794421 23.400744 2.751836 0.139048 -0.102865 -2.316109 8.575449 30.176527 2.353021 0.090476 -0.073390 -1.035983 5.868021 20.032586 10.067101 -0.059583 0.139200 -1.275640 5.246021 27.326369 3.909032 0.119070 -0.288406 -2.087169 6.576040 35.195336 2.328403 0.059427 -0.019094 -0.941413 4.542227 23.405219 9.468117 1.809829 0.132234 0.822895 -2.961348 31.134208 3.281521 0.033927 -0.224040 1.342777 -3.681351 40.051731 2.245000 0.008393 -0.070212 0.608076 -2.571919 26.680133 8.490762 3.584150 -0.077772 1.975778 -6.416001 34.209651 2.532180 0.017028 -0.073091 3.225924 -7.918020 44.097074 1.951206 -0.017003 0.025116 1.461571 -5.588224 29.290129 -4.397822 1.485009 12.860588 -0.000000 -0.000000 0.000003 -8.757322 0.049049 -2.312022 47.111486 -24.126200 -57.874795 -26.899998 -0.000004 -0.000009 79.916902 -11.205683 -13.356099 -23.014904 -0.000007 -0.000008 45.203599 2.174468 7.436386 -3.630005 -2.130010 -0.780002 -29.311456 4.711005 8.852136 -3.551216 -2.240067 -2.118011 -19.035881 13.346325 -1.312213 -2.159114 -0.963463 -1.116014 -10.741041 5.266939 2.532883 -10.514894 -2.197572 -0.040979 -13.876871 7.287374 -41.415054 -2.751811 0.139049 -0.102993 2.974035 1.379092 -89.988897 -2.353004 0.090489 -0.073002 2.299982 1.518021 -72.920964 -10.067105 -0.059577 0.140008 -13.988690 9.167330 -59.366980 -3.909112 0.119086 -0.289001 1.719618 0.196302 -89.641841 -2.328419 0.059448 -0.018988 1.385067 0.390322 -72.035915 -9.468104 1.809827 0.133013 -14.566738 7.384677 -54.452351 -3.281611 0.033940 -0.224999 0.553013 -0.928663 -89.990386 -2.244996 0.008372 -0.069991 0.546580 -0.529572 -59.759975 -8.490802 3.584135 -0.076968 -15.543033 3.238339 -42.612686 -2.532216 0.017040 -0.073997 -2.741265 -4.105147 -90.190558 -1.951199 -0.017010 0.026008 -1.433542 -3.454552 -65.194053 10.061401 0.706225 -5.185747 -3.564966 -0.043491 -19.930929 -0.348574 0.819164 -45.582397 0.568347 -1.281559 0.462255 0.349144 1.708489 -42.332493 -0.082539 14.237618 -2.130637 0.070277 -12.888704 -8.126665 -3.993987 -16.429240 -0.330054 -10.061000 0.706224 -5.185766 -4.596179 -10.555904 6.588859 0.348581 0.819166 -45.582409 0.703455 24.834006 -0.794654 -0.349178 1.708492 -42.332500 -0.255400 -1.839882 -1.435173 -0.070200 -12.888708 -8.126657 1.646587 -20.142588 0.292472 
0.182174 0.090679 100.057037 8.610991 7.501696 1.547984 -0.000424 -2.543428 9.319808 0.000114 0.002108 -3.045812 0.000000 0.000047 10.873103 -0.000000 0.000005 0.000000 -0.000000 5.951160 12.426386 -3.775528 0.018989 -0.778670 0.000000 1.460481 13.979698 -4.661936 -3.719561 -6.100559 0.000005 -2.091510 5.870219 -0.173942 5.762149 2.515811 4.399139 1.485011 12.861008 -0.000001 -0.000000 -0.000003 8.757345 0.049051 -2.311986 -12.447001 -5.136854 62.524132 26.900116 -0.000010 -0.000054 -114.453009 -14.028315 9.057980 23.014801 0.000001 -0.000047 0.039728 0.656198 -0.014532 3.629999 -2.129996 -0.779999 -22.207696 20.704834 4.106619 3.551134 -2.240050 -2.118363 0.000002 0.000006 0.000003 2.159111 -0.963457 -1.116317 1.466519 0.190764 14.809816 10.514911 -2.197576 -0.041017 -1.408320 6.794386 23.399578 2.751832 0.139066 -0.102867 -2.315692 8.575186 30.174990 2.353010 0.090495 -0.073390 -1.036494 5.867528 20.031654 10.067105 -0.059578 0.139200 -1.275399 5.245841 27.324961 3.909027 0.119076 -0.288390 -2.087430 6.575436 35.193690 2.328388 0.059444 -0.019089 -0.941175 4.541897 23.404108 9.468123 1.809831 0.132249 0.824362 -2.960252 31.132795 3.281520 0.033944 -0.224050 1.342120 -3.681661 40.049794 2.244996 0.008384 -0.070199 0.611407 -2.570098 26.678990 8.490778 3.584150 -0.077772 1.976415 -6.415151 34.208050 2.532175 0.017033 -0.073082 3.224983 -7.917856 44.094810 1.951219 -0.017019 0.025112 1.461311 -5.588041 29.288715 -4.397822 1.485009 12.860588 -0.000000 -0.000000 0.000003 -8.757322 0.049049 -2.312022 47.111486 -24.126200 -57.874795 -26.899998 -0.000004 -0.000009 79.916902 -11.205683 -13.356099 -23.014902 -0.000003 -0.000004 45.203585 2.174228 7.435732 -3.630008 -2.130010 -0.780000 -29.311460 4.710667 8.852427 -3.551208 -2.240071 -2.118008 -19.035609 13.346098 -1.312239 -2.159108 -0.963464 -1.116003 -10.741038 5.266925 2.532880 -10.514891 -2.197569 -0.040980 -13.876903 7.287285 -41.414456 -2.751813 0.139056 -0.103002 2.974031 1.379088 -89.988897 -2.352992 0.090495 -0.073007 2.299862 1.518096 -72.918567 -10.067107 -0.059582 0.140012 -13.988720 9.167493 -59.367362 -3.909100 0.119073 -0.289002 1.719672 0.187659 -89.641841 -2.328402 0.059426 -0.018988 1.388907 0.378387 -72.034447 -9.468122 1.809824 0.133013 -14.566744 7.384755 -54.452860 -3.281610 0.033931 -0.224992 0.553012 -0.928656 -89.990386 -2.245014 0.008397 -0.069996 0.547118 -0.530486 -59.758377 -8.490810 3.584138 -0.076982 -15.542961 3.238256 -42.612587 -2.532201 0.017032 -0.073995 -2.741265 -4.105146 -90.190558 -1.951191 -0.017010 0.026012 -1.433481 -3.454568 -65.193247 10.061401 0.706225 -5.185747 -3.564966 -0.043491 -19.930929 -0.348574 0.819164 -45.582397 0.568347 -1.281559 0.462255 0.349144 1.708489 -42.332493 -0.082539 14.237618 -2.130637 0.070277 -12.888704 -8.126665 -3.993987 -16.429240 -0.330054 -10.061000 0.706224 -5.185766 -4.596179 -10.555904 6.588859 0.348582 0.819166 -45.582405 0.707669 24.833953 -0.796424 -0.349177 1.708490 -42.332508 -0.255403 -1.839878 -1.435172 -0.070197 -12.888704 -8.126658 1.646588 -20.142581 0.292473 
0.215397 0.074814 99.969238 8.597611 7.508282 1.504798 -0.000424 -2.543411 9.319814 0.039599 -0.000430 -2.992122 0.000000 0.000046 10.873090 0.000000 0.000002 0.000000 0.000001 5.951165 12.426405 -3.773034 0.018927 -0.772406 0.000000 1.460479 13.979703 -4.688128 -3.689637 -6.135565 0.000002 -2.091491 5.870186 -0.178551 5.636970 2.511116 4.399139 1.485011 12.860999 0.000001 -0.000000 0.000010 8.757347 0.049049 -2.311973 -14.174975 -4.223357 62.382064 26.900099 -0.000012 -0.000034 -115.146034 -11.234836 7.150844 23.014807 -0.000000 -0.000053 0.055969 -0.664186 0.001742 3.630006 -2.129989 -0.779989 -22.207706 20.704836 4.106613 3.551138 -2.240054 -2.118360 0.000007 -0.000003 -0.000002 2.159107 -0.963474 -1.116307 1.466001 0.190633 14.809110 10.514920 -2.197563 -0.041019 -1.408578 6.793911 23.398418 2.751835 0.139055 -0.102868 -2.315276 8.574926 30.173471 2.353009 0.090480 -0.073389 -1.037019 5.867035 20.030715 10.067114 -0.059562 0.139205 -1.276262 5.245094 27.323750 3.909013 0.119067 -0.288396 -2.087361 6.575063 35.191914 2.328400 0.059448 -0.019109 -0.940165 4.541889 23.402938 9.468121 1.809833 0.132256 0.825000 -2.959640 31.131224 3.281526 0.033937 -0.224045 1.341441 -3.681976 40.047766 2.245017 0.008393 -0.070210 0.611297 -2.570003 26.677688 8.490788 3.584150 -0.077763 1.975406 -6.415424 34.206264 2.532172 0.017043 -0.073084 3.223879 -7.917845 44.092614 1.951213 -0.016997 0.025111 1.461519 -5.587587 29.287346 -4.397821 1.485010 12.860608 0.000000 -0.000001 0.000016 -8.757314 0.049049 -2.312010 49.485045 -22.718230 -56.969477 -26.899998 -0.000004 0.000001 80.960507 -9.011737 -10.550764 -23.014898 0.000010 0.000001 45.724715 0.317769 9.352090 -3.630004 -2.130007 -0.779997 -29.311470 4.710298 8.852717 -3.551213 -2.240070 -2.117997 -19.035039 13.345733 -1.312289 -2.159118 -0.963480 -1.116003 -10.740834 5.266834 2.532818 -10.514890 -2.197559 -0.040986 -13.876875 7.287072 -41.413568 -2.751806 0.139053 -0.102994 2.974035 1.379084 -89.988897 -2.353012 0.090495 -0.072996 2.299962 1.517258 -72.914776 -10.067112 -0.059577 0.140007 -13.988714 9.167597 -59.367977 -3.909113 0.119073 -0.288994 1.719672 0.187666 -89.641841 -2.328407 0.059436 -0.018985 1.388859 0.378437 -72.032036 -9.468107 1.809823 0.133005 -14.566753 7.384865 -54.453557 -3.281611 0.033918 -0.225007 0.553011 -0.928656 -89.990386 -2.245013 0.008376 -0.069987 0.547113 -0.530473 -59.755679 -8.490803 3.584133 -0.076988 -15.543041 3.238321 -42.612587 -2.532215 0.017034 -0.074002 -2.741266 -4.105142 -90.190558 -1.951197 -0.017016 0.026009 -1.433108 -3.455160 -65.191622 10.061401 0.706241 -5.185748 -3.523168 -0.040775 -19.879056 -0.348573 0.819163 -45.582413 0.564126 -1.281551 0.462381 0.349140 1.708499 -42.332485 -0.083475 14.215492 -2.125385 0.070271 -12.888706 -8.126672 -4.014962 -17.145793 -0.408478 -10.060999 0.706241 -5.185771 -4.622224 -10.800848 6.666960 0.348578 0.819168 -45.582417 0.737365 25.344190 -0.815129 -0.349179 1.708490 -42.332504 -0.211551 -2.103441 -1.453104 -0.070202 -12.888706 -8.126652 1.648398 -20.151196 0.292681 
0.247296 0.042088 99.888336 8.574701 7.503730 1.463545 -0.000424 -2.543421 9.319801 0.000090 0.001689 -2.941312 -0.000000 0.000045 10.873101 -0.000001 0.000002 -0.000000 0.000001 5.951169 12.426399 -3.768256 0.018572 -0.765941 0.000000 1.460478 13.979683 -4.703805 -3.655857 -6.156902 -0.000002 -2.091506 5.870189 -0.160749 5.507641 2.494688 4.399138 1.485008 12.860992 0.000000 0.000000 -0.000003 8.757353 0.049053 -2.311984 -15.533971 -3.480282 62.290512 26.900105 -0.000005 -0.000043 -115.583029 -8.990368 5.670403 23.014805 0.000005 -0.000054 0.087957 -1.568649 -0.017424 3.629987 -2.129983 -0.780005 -22.207701 20.704839 4.106615 3.551129 -2.240049 -2.118383 0.000009 -0.000006 0.000001 2.159118 -0.963464 -1.116310 1.464457 0.190224 14.808315 10.514901 -2.197564 -0.041022 -1.407805 6.793877 23.397242 2.751834 0.139058 -0.102871 -2.315451 8.574332 30.172026 2.353013 0.090485 -0.073396 -1.036817 5.866792 20.029704 10.067113 -0.059566 0.139199 -1.275489 5.245193 27.322386 3.909031 0.119059 -0.288395 -2.087320 6.574677 35.190227 2.328390 0.059426 -0.019096 -0.938398 4.542210 23.401703 9.468107 1.809833 0.132250 0.824024 -2.960013 31.129677 3.281535 0.033936 -0.224056 1.342119 -3.681163 40.045809 2.245014 0.008380 -0.070199 0.608885 -2.571065 26.676275 8.490771 3.584152 -0.077770 1.975724 -6.414800 34.204717 2.532176 0.017038 -0.073076 3.222778 -7.917844 44.090425 1.951218 -0.017015 0.025118 1.460775 -5.587669 29.285795 -4.397821 1.485006 12.860577 -0.000000 -0.000000 0.000000 -8.757318 0.049051 -2.312010 51.311011 -21.575557 -56.327740 -26.899996 -0.000006 0.000001 81.610399 -7.207364 -8.344569 -23.014902 -0.000005 0.000005 46.265526 -1.182748 10.789452 -3.629989 -2.130006 -0.780001 -29.311559 4.710269 8.852729 -3.551206 -2.240061 -2.118008 -19.034368 13.345298 -1.312445 -2.159089 -0.963466 -1.116009 -10.740409 5.266565 2.532677 -10.514874 -2.197568 -0.040991 -13.876981 7.287036 -41.412963 -2.751799 0.139050 -0.103007 2.974032 1.379087 -89.988890 -2.353009 0.090480 -0.072995 2.300667 1.514483 -72.910897 -10.067094 -0.059574 0.140006 -13.988650 9.167583 -59.368482 -3.909110 0.119068 -0.289016 1.719673 0.187669 -89.641841 -2.328395 0.059450 -0.018989 1.388791 0.378483 -72.029338 -9.468095 1.809835 0.133005 -14.566693 7.384930 -54.454462 -3.281610 0.033933 -0.225001 0.553011 -0.928659 -89.990386 -2.244996 0.008393 -0.069992 0.546581 -0.529536 -59.752278 -8.490789 3.584140 -0.076984 -15.543047 3.238345 -42.612785 -2.532206 0.017029 -0.073994 -2.741268 -4.105141 -90.190558 -1.951209 -0.017021 0.026021 -1.433231 -3.454635 -65.189743 10.061402 0.706234 -5.185752 -3.471601 -0.014898 -19.826258 -0.348570 0.819166 -45.582397 0.561288 -1.281554 0.462349 0.349142 1.708498 -42.332493 -0.076519 14.184076 -2.123713 0.070267 -12.888709 -8.126664 -4.034818 -17.783694 -0.478893 -10.060999 0.706232 -5.185785 -4.675829 -11.010557 6.739736 0.348580 0.819165 -45.582409 0.737772 25.811802 -0.820946 -0.349181 1.708489 -42.332497 -0.249485 -2.332716 -1.469763 -0.070204 -12.888706 -8.126663 1.653610 -20.171295 0.293908 
